Coordinates
nRows=231
nColumns=2
inDegrees=yes
endheader
time	ankle_angle_r	
3.09375	 -0.408082	
3.12702	 -0.438503	
3.16028	 -0.449566	
3.19355	 -0.427246	
3.22681	 -0.468730	
3.26008	 -0.442505	
3.29335	 -0.416473	
3.32661	 -0.477605	
3.35988	 -0.448406	
3.39315	 -0.432953	
3.42641	 -0.436991	
3.45968	 -0.518799	
3.49294	 -0.473022	
3.52621	 -0.513636	
3.55948	 -0.478800	
3.59274	 -0.488281	
3.62601	 -0.524251	
3.65927	 -0.543767	
3.69254	 -0.513153	
3.72581	 -0.555059	
3.75907	 -0.534058	
3.79234	 -0.473022	
3.8256	 -0.518799	
3.85887	 -0.497411	
3.89214	 -0.494507	
3.9254	 -0.509863	
3.95867	 -0.525218	
3.99194	 -0.497024	
4.0252	 -0.542704	
4.05847	 -0.564575	
4.09173	 -0.457764	
4.125	 -0.502087	
4.15827	 -0.518799	
4.19153	 -0.510636	
4.2248	 -0.489154	
4.25806	 -0.526088	
4.29133	 -0.488281	
4.3246	 -0.519092	
4.35786	 -0.503440	
4.39113	 -0.488281	
4.4244	 -0.503540	
4.45766	 -0.496631	
4.49093	 -0.473696	
4.52419	 -0.511603	
4.55746	 -0.482243	
4.59073	 -0.459018	
4.62399	 -0.488281	
4.65726	 -0.466213	
4.69052	 -0.466310	
4.72379	 -0.475050	
4.75706	 -0.466504	
4.79032	 -0.527635	
4.82359	 -0.475630	
4.85685	 -0.424445	
4.89012	 -0.442505	
4.92339	 -0.430434	
4.95665	 -0.411987	
4.98992	 -0.400303	
5.02319	 -0.471045	
5.05645	 -0.421597	
5.08972	 -0.416142	
5.12298	 -0.411987	
5.15625	 -0.437146	
5.18952	 -0.427246	
5.22278	 -0.422081	
5.25605	 -0.401850	
5.28931	 -0.411987	
5.32258	 -0.473022	
5.35585	 -0.396729	
5.38911	 -0.427246	
5.42238	 -0.405899	
5.45565	 -0.401217	
5.48891	 -0.407595	
5.52218	 -0.420578	
5.55544	 -0.416186	
5.58871	 -0.427246	
5.62198	 -0.435256	
5.65524	 -0.442505	
5.68851	 -0.488281	
5.72177	 -0.465194	
5.75504	 -0.438886	
5.78831	 -0.430768	
5.82157	 -0.503540	
5.85484	 -0.491610	
5.8881	 -0.500308	
5.92137	 -0.473022	
5.95464	 -0.482205	
5.9879	 -0.445446	
6.02117	 -0.546471	
6.05444	 -0.485533	
6.0877	 -0.460415	
6.12097	 -0.534058	
6.15423	 -0.488281	
6.1875	 -0.477745	
6.22077	 -0.516534	
6.25403	 -0.470854	
6.2873	 -0.475094	
6.32056	 -0.473022	
6.35383	 -0.413865	
6.3871	 -0.490063	
6.42036	 -0.484912	
6.45363	 -0.411987	
6.4869	 -0.414970	
6.52016	 -0.457764	
6.55343	 -0.413285	
6.58669	 -0.460166	
6.61996	 -0.444714	
6.65323	 -0.426238	
6.68649	 -0.459586	
6.71976	 -0.444134	
6.75302	 -0.397446	
6.78629	 -0.457143	
6.81956	 -0.457764	
6.85282	 -0.412415	
6.88609	 -0.442836	
6.91935	 -0.457764	
6.95262	 -0.412263	
6.98589	 -0.442587	
7.01915	 -0.442505	
7.05242	 -0.427398	
7.08569	 -0.503540	
7.11895	 -0.503540	
7.15222	 -0.457764	
7.18548	 -0.533518	
7.21875	 -0.518799	
7.25202	 -0.486816	
7.28528	 -0.518799	
7.31855	 -0.490133	
7.35181	 -0.517776	
7.38508	 -0.487162	
7.41835	 -0.517583	
7.45161	 -0.488281	
7.48488	 -0.502131	
7.51815	 -0.503540	
7.55141	 -0.457764	
7.58468	 -0.532358	
7.61794	 -0.520595	
7.65121	 -0.518799	
7.68448	 -0.494249	
7.71774	 -0.551402	
7.75101	 -0.475205	
7.78427	 -0.477581	
7.81754	 -0.503540	
7.85081	 -0.452818	
7.88407	 -0.488281	
7.91734	 -0.470356	
7.9506	 -0.402254	
7.98387	 -0.488281	
8.01714	 -0.466632	
8.0504	 -0.415040	
8.08367	 -0.418287	
8.11694	 -0.430492	
8.1502	 -0.423903	
8.18347	 -0.445945	
8.21673	 -0.407338	
8.25	 -0.416347	
8.28327	 -0.434706	
8.31653	 -0.389123	
8.3498	 -0.385393	
8.38306	 -0.431266	
8.41633	 -0.385586	
8.4496	 -0.385683	
8.48286	 -0.420607	
8.51613	 -0.438098	
8.5494	 -0.402981	
8.58266	 -0.431846	
8.61593	 -0.427246	
8.64919	 -0.411987	
8.68246	 -0.502951	
8.71573	 -0.457764	
8.74899	 -0.452680	
8.78226	 -0.503540	
8.81552	 -0.452487	
8.84879	 -0.442505	
8.88206	 -0.473022	
8.91532	 -0.467456	
8.94859	 -0.448168	
8.98185	 -0.484543	
9.01512	 -0.457764	
9.04839	 -0.457764	
9.08165	 -0.479073	
9.11492	 -0.451617	
9.14819	 -0.427246	
9.18145	 -0.518799	
9.21472	 -0.497103	
9.24798	 -0.411987	
9.28125	 -0.503540	
9.31452	 -0.433973	
9.34778	 -0.418811	
9.38105	 -0.474441	
9.41431	 -0.404970	
9.44758	 -0.427246	
9.48085	 -0.457764	
9.51411	 -0.411987	
9.54738	 -0.389325	
9.58065	 -0.427246	
9.61391	 -0.411987	
9.64718	 -0.419423	
9.68044	 -0.419778	
9.71371	 -0.396729	
9.74698	 -0.419262	
9.78024	 -0.427246	
9.81351	 -0.389647	
9.84677	 -0.434231	
9.88004	 -0.427246	
9.91331	 -0.395053	
9.94657	 -0.427246	
9.97984	 -0.473022	
10.0131	 -0.396729	
10.0464	 -0.448910	
10.0796	 -0.436197	
10.1129	 -0.439669	
10.1462	 -0.512684	
10.1794	 -0.509558	
10.2127	 -0.524720	
10.246	 -0.503540	
10.2792	 -0.534058	
10.3125	 -0.493912	
10.3458	 -0.524333	
10.379	 -0.528620	
10.4123	 -0.514222	
10.4456	 -0.503540	
10.4788	 -0.559427	
10.5121	 -0.478074	
10.5454	 -0.529103	
10.5786	 -0.513941	
10.6119	 -0.468261	
10.6452	 -0.514134	
10.6784	 -0.518799	
10.7117	 -0.473022	
10.745	 -0.503540	
